<?xml version="1.0" encoding="UTF-8"?>
<svg id="Calque_1" xmlns="http://www.w3.org/2000/svg" viewBox="0 0 662.3 230.81">
  <defs>
    <style>
      .cls-1 {
        fill: #510d6d;
      }

      .cls-2 {
        fill: #0497af;
      }

      .cls-3 {
        fill: #f26639;
      }
    </style>
  </defs>
  <g>
    <path class="cls-3" d="M82.3,58.96h-21.4c-3.02,0-5.81,1.61-7.32,4.23l-10.7,18.53c-1.51,2.62-1.51,5.84,0,8.45l10.7,18.53c1.51,2.62,4.3,4.23,7.32,4.23h21.4c3.02,0,5.81-1.61,7.32-4.23l10.7-18.53c1.51-2.62,1.51-5.84,0-8.45l-10.7-18.53c-1.51-2.62-4.3-4.23-7.32-4.23Z"/>
    <path class="cls-1" d="M131.27,87.13h-21.4c-3.02,0-5.81,1.61-7.32,4.23l-10.7,18.53c-1.51,2.62-1.51,5.84,0,8.45l10.7,18.53c1.51,2.62,4.3,4.23,7.32,4.23h21.4c3.02,0,5.81-1.61,7.32-4.23l10.7-18.53c1.51-2.62,1.51-5.84,0-8.45l-10.7-18.53c-1.51-2.62-4.3-4.23-7.32-4.23Z"/>
    <path class="cls-2" d="M180.41,58.96h-21.4c-3.02,0-5.81,1.61-7.32,4.23l-10.7,18.53c-1.51,2.62-1.51,5.84,0,8.45l10.7,18.53c1.51,2.62,4.3,4.23,7.32,4.23h21.4c3.02,0,5.81-1.61,7.32-4.23l10.7-18.53c1.51-2.62,1.51-5.84,0-8.45l-10.7-18.53c-1.51-2.62-4.3-4.23-7.32-4.23Z"/>
    <path class="cls-3" d="M180.41,115.29h-21.4c-3.02,0-5.81,1.61-7.32,4.23l-10.7,18.53c-1.51,2.62-1.51,5.84,0,8.45l10.7,18.53c1.51,2.62,4.3,4.23,7.32,4.23h21.4c3.02,0,5.81-1.61,7.32-4.23l10.7-18.53c1.51-2.62,1.51-5.84,0-8.45l-10.7-18.53c-1.51-2.62-4.3-4.23-7.32-4.23Z"/>
    <path class="cls-1" d="M131.27,143.46h-21.4c-3.02,0-5.81,1.61-7.32,4.23l-10.7,18.53c-1.51,2.62-1.51,5.84,0,8.45l10.7,18.53c1.51,2.62,4.3,4.23,7.32,4.23h21.4c3.02,0,5.81-1.61,7.32-4.23l10.7-18.53c1.51-2.62,1.51-5.84,0-8.45l-10.7-18.53c-1.51-2.62-4.3-4.23-7.32-4.23Z"/>
    <path class="cls-2" d="M82.3,115.29h-21.4c-3.02,0-5.81,1.61-7.32,4.23l-10.7,18.53c-1.51,2.62-1.51,5.84,0,8.45l10.7,18.53c1.51,2.62,4.3,4.23,7.32,4.23h21.4c3.02,0,5.81-1.61,7.32-4.23l10.7-18.53c1.51-2.62,1.51-5.84,0-8.45l-10.7-18.53c-1.51-2.62-4.3-4.23-7.32-4.23Z"/>
    <path class="cls-1" d="M131.27,30.79h-21.4c-3.02,0-5.81,1.61-7.32,4.23l-10.7,18.53c-1.51,2.62-1.51,5.84,0,8.45l10.7,18.53c1.51,2.62,4.3,4.23,7.32,4.23h21.4c3.02,0,5.81-1.61,7.32-4.23l10.7-18.53c1.51-2.62,1.51-5.84,0-8.45l-10.7-18.53c-1.51-2.62-4.3-4.23-7.32-4.23Z"/>
  </g>
  <g>
    <path class="cls-1" d="M241.85,147.59c-4.69,0-9.23-.53-13.6-1.6-4.37-1.07-7.97-2.45-10.8-4.16l6.08-13.76c2.67,1.55,5.64,2.79,8.92,3.72,3.28.93,6.47,1.4,9.56,1.4,1.81,0,3.24-.12,4.28-.36,1.04-.24,1.8-.59,2.28-1.04.48-.45.72-1,.72-1.64,0-1.01-.56-1.81-1.68-2.4-1.12-.59-2.6-1.08-4.44-1.48s-3.85-.83-6.04-1.28c-2.19-.45-4.39-1.05-6.6-1.8-2.21-.75-4.24-1.73-6.08-2.96-1.84-1.23-3.32-2.84-4.44-4.84-1.12-2-1.68-4.49-1.68-7.48,0-3.47.97-6.63,2.92-9.48,1.95-2.85,4.85-5.13,8.72-6.84,3.87-1.71,8.68-2.56,14.44-2.56,3.79,0,7.52.4,11.2,1.2,3.68.8,6.99,2.03,9.92,3.68l-5.68,13.68c-2.77-1.39-5.45-2.43-8.04-3.12-2.59-.69-5.11-1.04-7.56-1.04-1.81,0-3.25.16-4.32.48-1.07.32-1.83.75-2.28,1.28-.45.53-.68,1.12-.68,1.76,0,.96.56,1.72,1.68,2.28s2.6,1.03,4.44,1.4c1.84.37,3.87.77,6.08,1.2,2.21.43,4.41,1.01,6.6,1.76,2.19.75,4.2,1.73,6.04,2.96,1.84,1.23,3.32,2.83,4.44,4.8,1.12,1.97,1.68,4.43,1.68,7.36,0,3.41-.97,6.55-2.92,9.4-1.95,2.85-4.84,5.15-8.68,6.88-3.84,1.73-8.67,2.6-14.48,2.6Z"/>
    <path class="cls-1" d="M296.09,147.11c-4.96,0-9.35-.97-13.16-2.92-3.81-1.95-6.81-4.63-9-8.04-2.19-3.41-3.28-7.33-3.28-11.76s1.09-8.35,3.28-11.76c2.19-3.41,5.19-6.08,9-8,3.81-1.92,8.2-2.88,13.16-2.88s9.36.96,13.2,2.88c3.84,1.92,6.84,4.59,9,8,2.16,3.41,3.24,7.33,3.24,11.76s-1.08,8.35-3.24,11.76c-2.16,3.41-5.16,6.09-9,8.04-3.84,1.95-8.24,2.92-13.2,2.92ZM296.09,133.03c1.33,0,2.53-.32,3.6-.96,1.07-.64,1.92-1.61,2.56-2.92.64-1.31.96-2.89.96-4.76s-.32-3.51-.96-4.76c-.64-1.25-1.49-2.2-2.56-2.84-1.07-.64-2.27-.96-3.6-.96s-2.53.32-3.6.96c-1.07.64-1.92,1.59-2.56,2.84-.64,1.25-.96,2.84-.96,4.76s.32,3.45.96,4.76c.64,1.31,1.49,2.28,2.56,2.92,1.07.64,2.27.96,3.6.96Z"/>
    <path class="cls-1" d="M327.21,146.31v-59.36h18.08v59.36h-18.08Z"/>
    <path class="cls-1" d="M362.32,99.03c-3.31,0-5.95-.88-7.92-2.64-1.97-1.76-2.96-3.95-2.96-6.56s.99-4.8,2.96-6.56c1.97-1.76,4.61-2.64,7.92-2.64s5.95.83,7.92,2.48c1.97,1.65,2.96,3.79,2.96,6.4,0,2.77-.99,5.05-2.96,6.84-1.97,1.79-4.61,2.68-7.92,2.68ZM353.28,146.31v-43.76h18.08v43.76h-18.08Z"/>
    <path class="cls-1" d="M398.56,147.11c-3.79,0-7.29-.92-10.52-2.76-3.23-1.84-5.8-4.45-7.72-7.84-1.92-3.39-2.88-7.43-2.88-12.12s.96-8.73,2.88-12.12c1.92-3.39,4.49-5.99,7.72-7.8,3.23-1.81,6.73-2.72,10.52-2.72s6.99.81,9.44,2.44c2.45,1.63,4.27,4.11,5.44,7.44,1.17,3.33,1.76,7.59,1.76,12.76s-.55,9.52-1.64,12.88c-1.09,3.36-2.85,5.84-5.28,7.44-2.43,1.6-5.67,2.4-9.72,2.4ZM402.88,133.03c1.33,0,2.53-.32,3.6-.96,1.07-.64,1.92-1.61,2.56-2.92.64-1.31.96-2.89.96-4.76s-.32-3.51-.96-4.76c-.64-1.25-1.49-2.2-2.56-2.84-1.07-.64-2.27-.96-3.6-.96s-2.53.32-3.6.96c-1.07.64-1.92,1.59-2.56,2.84-.64,1.25-.96,2.84-.96,4.76s.32,3.45.96,4.76c.64,1.31,1.49,2.28,2.56,2.92,1.07.64,2.27.96,3.6.96ZM410.56,146.31v-5.92l-.08-16-.8-16v-21.44h18.08v59.36h-17.2Z"/>
    <path class="cls-1" d="M455.2,146.31h-18.88v-56h18.88v56ZM473.92,125.67h-20v-15.52h20v15.52ZM472.64,90.31h18.88v56h-18.88v-56Z"/>
    <path class="cls-1" d="M509.12,99.03c-3.31,0-5.95-.88-7.92-2.64-1.97-1.76-2.96-3.95-2.96-6.56s.99-4.8,2.96-6.56c1.97-1.76,4.61-2.64,7.92-2.64s5.95.83,7.92,2.48c1.97,1.65,2.96,3.79,2.96,6.4,0,2.77-.99,5.05-2.96,6.84-1.97,1.79-4.61,2.68-7.92,2.68ZM500.08,146.31v-43.76h18.08v43.76h-18.08Z"/>
    <path class="cls-1" d="M538.56,146.31l-17.6-43.76h18.56l13.36,35.52h-9.36l14.24-35.52h17.12l-17.6,43.76h-18.72Z"/>
    <path class="cls-1" d="M601.84,147.11c-5.33,0-9.99-.99-13.96-2.96-3.97-1.97-7.05-4.68-9.24-8.12-2.19-3.44-3.28-7.32-3.28-11.64s1.08-8.35,3.24-11.76c2.16-3.41,5.12-6.08,8.88-8,3.76-1.92,7.99-2.88,12.68-2.88,4.32,0,8.31.85,11.96,2.56,3.65,1.71,6.59,4.24,8.8,7.6,2.21,3.36,3.32,7.52,3.32,12.48,0,.64-.03,1.35-.08,2.12-.05.77-.11,1.48-.16,2.12h-33.68v-8.72h24.08l-6.8,2.32c0-1.71-.31-3.16-.92-4.36-.61-1.2-1.45-2.13-2.52-2.8-1.07-.67-2.35-1-3.84-1s-2.79.33-3.88,1c-1.09.67-1.93,1.6-2.52,2.8-.59,1.2-.88,2.65-.88,4.36v2.72c0,1.87.37,3.47,1.12,4.8.75,1.33,1.81,2.33,3.2,3,1.39.67,3.07,1,5.04,1s3.69-.27,5-.8c1.31-.53,2.68-1.33,4.12-2.4l9.44,9.52c-2.13,2.29-4.76,4.04-7.88,5.24-3.12,1.2-6.87,1.8-11.24,1.8Z"/>
  </g>
</svg>